<mxfile host="app.diagrams.net" modified="2023-09-12T18:35:08.728Z" agent="Mozilla/5.0 (Windows NT 10.0; Win64; x64) AppleWebKit/537.36 (KHTML, like Gecko) Chrome/116.0.0.0 Safari/537.36" etag="dzvae1JolJ9PC4DVegIG" version="21.7.4" type="device">
  <diagram name="Página-1" id="NYAYA-v1JOzJKr4ZtSNO">
    <mxGraphModel dx="880" dy="470" grid="1" gridSize="10" guides="1" tooltips="1" connect="1" arrows="1" fold="1" page="1" pageScale="1" pageWidth="827" pageHeight="1169" math="0" shadow="0">
      <root>
        <mxCell id="0" />
        <mxCell id="1" parent="0" />
        <mxCell id="DPEkDMbO7FzU6ocvymqa-23" style="edgeStyle=orthogonalEdgeStyle;rounded=0;orthogonalLoop=1;jettySize=auto;html=1;exitX=0.5;exitY=1;exitDx=0;exitDy=0;exitPerimeter=0;entryX=0.5;entryY=0;entryDx=0;entryDy=0;" edge="1" parent="1" source="DPEkDMbO7FzU6ocvymqa-1" target="DPEkDMbO7FzU6ocvymqa-18">
          <mxGeometry relative="1" as="geometry" />
        </mxCell>
        <mxCell id="DPEkDMbO7FzU6ocvymqa-1" value="" style="strokeWidth=2;html=1;shape=mxgraph.flowchart.start_2;whiteSpace=wrap;" vertex="1" parent="1">
          <mxGeometry x="475" y="205" width="66" height="60" as="geometry" />
        </mxCell>
        <mxCell id="DPEkDMbO7FzU6ocvymqa-16" style="edgeStyle=orthogonalEdgeStyle;rounded=0;orthogonalLoop=1;jettySize=auto;html=1;exitX=0.5;exitY=1;exitDx=0;exitDy=0;entryX=0.5;entryY=0;entryDx=0;entryDy=0;" edge="1" parent="1" source="DPEkDMbO7FzU6ocvymqa-7" target="DPEkDMbO7FzU6ocvymqa-8">
          <mxGeometry relative="1" as="geometry" />
        </mxCell>
        <mxCell id="DPEkDMbO7FzU6ocvymqa-17" value="Sim" style="edgeLabel;html=1;align=center;verticalAlign=middle;resizable=0;points=[];" vertex="1" connectable="0" parent="DPEkDMbO7FzU6ocvymqa-16">
          <mxGeometry x="-0.5643" y="-1" relative="1" as="geometry">
            <mxPoint as="offset" />
          </mxGeometry>
        </mxCell>
        <mxCell id="DPEkDMbO7FzU6ocvymqa-119" style="edgeStyle=orthogonalEdgeStyle;rounded=0;orthogonalLoop=1;jettySize=auto;html=1;exitX=1;exitY=0.5;exitDx=0;exitDy=0;entryX=0.5;entryY=0;entryDx=0;entryDy=0;entryPerimeter=0;" edge="1" parent="1" source="DPEkDMbO7FzU6ocvymqa-7" target="DPEkDMbO7FzU6ocvymqa-118">
          <mxGeometry relative="1" as="geometry" />
        </mxCell>
        <mxCell id="DPEkDMbO7FzU6ocvymqa-7" value="Livro disponível?" style="rhombus;whiteSpace=wrap;html=1;" vertex="1" parent="1">
          <mxGeometry x="468" y="505" width="80" height="80" as="geometry" />
        </mxCell>
        <mxCell id="DPEkDMbO7FzU6ocvymqa-11" style="edgeStyle=orthogonalEdgeStyle;rounded=0;orthogonalLoop=1;jettySize=auto;html=1;exitX=0.5;exitY=1;exitDx=0;exitDy=0;entryX=0.5;entryY=0;entryDx=0;entryDy=0;" edge="1" parent="1" source="DPEkDMbO7FzU6ocvymqa-8" target="DPEkDMbO7FzU6ocvymqa-10">
          <mxGeometry relative="1" as="geometry" />
        </mxCell>
        <mxCell id="DPEkDMbO7FzU6ocvymqa-8" value="Fazer empréstimo" style="rounded=1;whiteSpace=wrap;html=1;" vertex="1" parent="1">
          <mxGeometry x="448" y="625" width="120" height="60" as="geometry" />
        </mxCell>
        <mxCell id="DPEkDMbO7FzU6ocvymqa-14" style="edgeStyle=orthogonalEdgeStyle;rounded=0;orthogonalLoop=1;jettySize=auto;html=1;exitX=0.5;exitY=1;exitDx=0;exitDy=0;entryX=0.5;entryY=0;entryDx=0;entryDy=0;" edge="1" parent="1" source="DPEkDMbO7FzU6ocvymqa-9" target="DPEkDMbO7FzU6ocvymqa-13">
          <mxGeometry relative="1" as="geometry" />
        </mxCell>
        <mxCell id="DPEkDMbO7FzU6ocvymqa-9" value="Colocar empréstimo no histórico" style="rounded=1;whiteSpace=wrap;html=1;" vertex="1" parent="1">
          <mxGeometry x="448" y="820" width="120" height="60" as="geometry" />
        </mxCell>
        <mxCell id="DPEkDMbO7FzU6ocvymqa-12" style="edgeStyle=orthogonalEdgeStyle;rounded=0;orthogonalLoop=1;jettySize=auto;html=1;exitX=0.5;exitY=1;exitDx=0;exitDy=0;entryX=0.5;entryY=0;entryDx=0;entryDy=0;" edge="1" parent="1" source="DPEkDMbO7FzU6ocvymqa-10" target="DPEkDMbO7FzU6ocvymqa-9">
          <mxGeometry relative="1" as="geometry" />
        </mxCell>
        <mxCell id="DPEkDMbO7FzU6ocvymqa-10" value="Mudar estado de disponibilidade do livro" style="rounded=1;whiteSpace=wrap;html=1;" vertex="1" parent="1">
          <mxGeometry x="448" y="725" width="120" height="60" as="geometry" />
        </mxCell>
        <mxCell id="DPEkDMbO7FzU6ocvymqa-13" value="" style="ellipse;whiteSpace=wrap;html=1;aspect=fixed;strokeWidth=6;" vertex="1" parent="1">
          <mxGeometry x="478" y="935" width="60" height="60" as="geometry" />
        </mxCell>
        <mxCell id="DPEkDMbO7FzU6ocvymqa-25" style="edgeStyle=orthogonalEdgeStyle;rounded=0;orthogonalLoop=1;jettySize=auto;html=1;exitX=0.5;exitY=1;exitDx=0;exitDy=0;entryX=0.5;entryY=0;entryDx=0;entryDy=0;" edge="1" parent="1" source="DPEkDMbO7FzU6ocvymqa-18" target="DPEkDMbO7FzU6ocvymqa-24">
          <mxGeometry relative="1" as="geometry" />
        </mxCell>
        <mxCell id="DPEkDMbO7FzU6ocvymqa-18" value="Inserir nome do leitor" style="rounded=1;whiteSpace=wrap;html=1;" vertex="1" parent="1">
          <mxGeometry x="448" y="305" width="120" height="60" as="geometry" />
        </mxCell>
        <mxCell id="DPEkDMbO7FzU6ocvymqa-27" style="edgeStyle=orthogonalEdgeStyle;rounded=0;orthogonalLoop=1;jettySize=auto;html=1;exitX=0;exitY=0.5;exitDx=0;exitDy=0;entryX=1;entryY=0.75;entryDx=0;entryDy=0;" edge="1" parent="1" source="DPEkDMbO7FzU6ocvymqa-24" target="DPEkDMbO7FzU6ocvymqa-26">
          <mxGeometry relative="1" as="geometry" />
        </mxCell>
        <mxCell id="DPEkDMbO7FzU6ocvymqa-29" value="Não" style="edgeLabel;html=1;align=center;verticalAlign=middle;resizable=0;points=[];" vertex="1" connectable="0" parent="DPEkDMbO7FzU6ocvymqa-27">
          <mxGeometry x="-0.8905" relative="1" as="geometry">
            <mxPoint as="offset" />
          </mxGeometry>
        </mxCell>
        <mxCell id="DPEkDMbO7FzU6ocvymqa-30" style="edgeStyle=orthogonalEdgeStyle;rounded=0;orthogonalLoop=1;jettySize=auto;html=1;exitX=0.5;exitY=1;exitDx=0;exitDy=0;entryX=0.5;entryY=0;entryDx=0;entryDy=0;" edge="1" parent="1" source="DPEkDMbO7FzU6ocvymqa-24" target="DPEkDMbO7FzU6ocvymqa-7">
          <mxGeometry relative="1" as="geometry" />
        </mxCell>
        <mxCell id="DPEkDMbO7FzU6ocvymqa-31" value="SIm" style="edgeLabel;html=1;align=center;verticalAlign=middle;resizable=0;points=[];" vertex="1" connectable="0" parent="DPEkDMbO7FzU6ocvymqa-30">
          <mxGeometry x="-0.5773" y="2" relative="1" as="geometry">
            <mxPoint as="offset" />
          </mxGeometry>
        </mxCell>
        <mxCell id="DPEkDMbO7FzU6ocvymqa-24" value="Leitor registrado?" style="rhombus;whiteSpace=wrap;html=1;" vertex="1" parent="1">
          <mxGeometry x="468" y="385" width="80" height="80" as="geometry" />
        </mxCell>
        <mxCell id="DPEkDMbO7FzU6ocvymqa-28" style="edgeStyle=orthogonalEdgeStyle;rounded=0;orthogonalLoop=1;jettySize=auto;html=1;exitX=1;exitY=0.25;exitDx=0;exitDy=0;entryX=0;entryY=0.5;entryDx=0;entryDy=0;" edge="1" parent="1" source="DPEkDMbO7FzU6ocvymqa-26" target="DPEkDMbO7FzU6ocvymqa-18">
          <mxGeometry relative="1" as="geometry" />
        </mxCell>
        <mxCell id="DPEkDMbO7FzU6ocvymqa-26" value="Registrar Leitor" style="rounded=1;whiteSpace=wrap;html=1;" vertex="1" parent="1">
          <mxGeometry x="134" y="355" width="120" height="60" as="geometry" />
        </mxCell>
        <mxCell id="DPEkDMbO7FzU6ocvymqa-35" value="Final" style="text;html=1;align=center;verticalAlign=middle;resizable=0;points=[];autosize=1;strokeColor=none;fillColor=none;" vertex="1" parent="1">
          <mxGeometry x="483" y="1000" width="50" height="30" as="geometry" />
        </mxCell>
        <mxCell id="DPEkDMbO7FzU6ocvymqa-36" value="Início" style="text;html=1;align=center;verticalAlign=middle;resizable=0;points=[];autosize=1;strokeColor=none;fillColor=none;" vertex="1" parent="1">
          <mxGeometry x="483" y="175" width="50" height="30" as="geometry" />
        </mxCell>
        <mxCell id="DPEkDMbO7FzU6ocvymqa-85" style="edgeStyle=orthogonalEdgeStyle;rounded=0;orthogonalLoop=1;jettySize=auto;html=1;exitX=0.5;exitY=1;exitDx=0;exitDy=0;exitPerimeter=0;entryX=0.5;entryY=0;entryDx=0;entryDy=0;" edge="1" parent="1" source="DPEkDMbO7FzU6ocvymqa-86" target="DPEkDMbO7FzU6ocvymqa-100">
          <mxGeometry relative="1" as="geometry" />
        </mxCell>
        <mxCell id="DPEkDMbO7FzU6ocvymqa-86" value="" style="strokeWidth=2;html=1;shape=mxgraph.flowchart.start_2;whiteSpace=wrap;" vertex="1" parent="1">
          <mxGeometry x="1301" y="205" width="66" height="60" as="geometry" />
        </mxCell>
        <mxCell id="DPEkDMbO7FzU6ocvymqa-92" style="edgeStyle=orthogonalEdgeStyle;rounded=0;orthogonalLoop=1;jettySize=auto;html=1;exitX=0.5;exitY=1;exitDx=0;exitDy=0;entryX=0.5;entryY=0;entryDx=0;entryDy=0;" edge="1" parent="1" source="DPEkDMbO7FzU6ocvymqa-93" target="DPEkDMbO7FzU6ocvymqa-97">
          <mxGeometry relative="1" as="geometry" />
        </mxCell>
        <mxCell id="DPEkDMbO7FzU6ocvymqa-93" value="Fazer devolução" style="rounded=1;whiteSpace=wrap;html=1;" vertex="1" parent="1">
          <mxGeometry x="1274" y="505" width="120" height="60" as="geometry" />
        </mxCell>
        <mxCell id="DPEkDMbO7FzU6ocvymqa-94" style="edgeStyle=orthogonalEdgeStyle;rounded=0;orthogonalLoop=1;jettySize=auto;html=1;exitX=0.5;exitY=1;exitDx=0;exitDy=0;entryX=0.5;entryY=0;entryDx=0;entryDy=0;" edge="1" parent="1" source="DPEkDMbO7FzU6ocvymqa-95" target="DPEkDMbO7FzU6ocvymqa-98">
          <mxGeometry relative="1" as="geometry" />
        </mxCell>
        <mxCell id="DPEkDMbO7FzU6ocvymqa-95" value="Colocar devolução no histórico" style="rounded=1;whiteSpace=wrap;html=1;" vertex="1" parent="1">
          <mxGeometry x="1274" y="700" width="120" height="60" as="geometry" />
        </mxCell>
        <mxCell id="DPEkDMbO7FzU6ocvymqa-96" style="edgeStyle=orthogonalEdgeStyle;rounded=0;orthogonalLoop=1;jettySize=auto;html=1;exitX=0.5;exitY=1;exitDx=0;exitDy=0;entryX=0.5;entryY=0;entryDx=0;entryDy=0;" edge="1" parent="1" source="DPEkDMbO7FzU6ocvymqa-97" target="DPEkDMbO7FzU6ocvymqa-95">
          <mxGeometry relative="1" as="geometry" />
        </mxCell>
        <mxCell id="DPEkDMbO7FzU6ocvymqa-97" value="Mudar estado de disponibilidade do livro" style="rounded=1;whiteSpace=wrap;html=1;" vertex="1" parent="1">
          <mxGeometry x="1274" y="605" width="120" height="60" as="geometry" />
        </mxCell>
        <mxCell id="DPEkDMbO7FzU6ocvymqa-98" value="" style="ellipse;whiteSpace=wrap;html=1;aspect=fixed;strokeWidth=6;" vertex="1" parent="1">
          <mxGeometry x="1304" y="815" width="60" height="60" as="geometry" />
        </mxCell>
        <mxCell id="DPEkDMbO7FzU6ocvymqa-99" style="edgeStyle=orthogonalEdgeStyle;rounded=0;orthogonalLoop=1;jettySize=auto;html=1;exitX=0.5;exitY=1;exitDx=0;exitDy=0;entryX=0.5;entryY=0;entryDx=0;entryDy=0;" edge="1" parent="1" source="DPEkDMbO7FzU6ocvymqa-100" target="DPEkDMbO7FzU6ocvymqa-105">
          <mxGeometry relative="1" as="geometry" />
        </mxCell>
        <mxCell id="DPEkDMbO7FzU6ocvymqa-100" value="Inserir ISBN do livro" style="rounded=1;whiteSpace=wrap;html=1;" vertex="1" parent="1">
          <mxGeometry x="1274" y="305" width="120" height="60" as="geometry" />
        </mxCell>
        <mxCell id="DPEkDMbO7FzU6ocvymqa-112" style="edgeStyle=orthogonalEdgeStyle;rounded=0;orthogonalLoop=1;jettySize=auto;html=1;exitX=0.5;exitY=1;exitDx=0;exitDy=0;entryX=0.5;entryY=0;entryDx=0;entryDy=0;" edge="1" parent="1" source="DPEkDMbO7FzU6ocvymqa-105" target="DPEkDMbO7FzU6ocvymqa-93">
          <mxGeometry relative="1" as="geometry" />
        </mxCell>
        <mxCell id="DPEkDMbO7FzU6ocvymqa-113" value="Sim" style="edgeLabel;html=1;align=center;verticalAlign=middle;resizable=0;points=[];" vertex="1" connectable="0" parent="DPEkDMbO7FzU6ocvymqa-112">
          <mxGeometry x="-0.9317" relative="1" as="geometry">
            <mxPoint as="offset" />
          </mxGeometry>
        </mxCell>
        <mxCell id="DPEkDMbO7FzU6ocvymqa-123" style="edgeStyle=orthogonalEdgeStyle;rounded=0;orthogonalLoop=1;jettySize=auto;html=1;exitX=0;exitY=0.5;exitDx=0;exitDy=0;entryX=0.5;entryY=0;entryDx=0;entryDy=0;entryPerimeter=0;" edge="1" parent="1" source="DPEkDMbO7FzU6ocvymqa-105" target="DPEkDMbO7FzU6ocvymqa-122">
          <mxGeometry relative="1" as="geometry" />
        </mxCell>
        <mxCell id="DPEkDMbO7FzU6ocvymqa-124" value="Não" style="edgeLabel;html=1;align=center;verticalAlign=middle;resizable=0;points=[];" vertex="1" connectable="0" parent="DPEkDMbO7FzU6ocvymqa-123">
          <mxGeometry x="-0.9145" y="-1" relative="1" as="geometry">
            <mxPoint as="offset" />
          </mxGeometry>
        </mxCell>
        <mxCell id="DPEkDMbO7FzU6ocvymqa-105" value="Livro Emprestado?" style="rhombus;whiteSpace=wrap;html=1;" vertex="1" parent="1">
          <mxGeometry x="1294" y="385" width="80" height="80" as="geometry" />
        </mxCell>
        <mxCell id="DPEkDMbO7FzU6ocvymqa-108" value="Início" style="text;html=1;align=center;verticalAlign=middle;resizable=0;points=[];autosize=1;strokeColor=none;fillColor=none;" vertex="1" parent="1">
          <mxGeometry x="1309" y="175" width="50" height="30" as="geometry" />
        </mxCell>
        <mxCell id="DPEkDMbO7FzU6ocvymqa-109" value="EMPRESTAR" style="text;html=1;align=center;verticalAlign=middle;resizable=0;points=[];autosize=1;strokeColor=none;fillColor=none;fontSize=47;fontStyle=1" vertex="1" parent="1">
          <mxGeometry x="348" y="20" width="320" height="70" as="geometry" />
        </mxCell>
        <mxCell id="DPEkDMbO7FzU6ocvymqa-110" value="DEVOLUÇÃO" style="text;html=1;align=center;verticalAlign=middle;resizable=0;points=[];autosize=1;strokeColor=none;fillColor=none;fontSize=47;fontStyle=1" vertex="1" parent="1">
          <mxGeometry x="1174" y="20" width="320" height="70" as="geometry" />
        </mxCell>
        <mxCell id="DPEkDMbO7FzU6ocvymqa-115" value="Final" style="text;html=1;align=center;verticalAlign=middle;resizable=0;points=[];autosize=1;strokeColor=none;fillColor=none;" vertex="1" parent="1">
          <mxGeometry x="1309" y="880" width="50" height="30" as="geometry" />
        </mxCell>
        <mxCell id="DPEkDMbO7FzU6ocvymqa-120" style="edgeStyle=orthogonalEdgeStyle;rounded=0;orthogonalLoop=1;jettySize=auto;html=1;exitX=0.5;exitY=1;exitDx=0;exitDy=0;exitPerimeter=0;entryX=1;entryY=0.5;entryDx=0;entryDy=0;" edge="1" parent="1" source="DPEkDMbO7FzU6ocvymqa-118" target="DPEkDMbO7FzU6ocvymqa-13">
          <mxGeometry relative="1" as="geometry" />
        </mxCell>
        <mxCell id="DPEkDMbO7FzU6ocvymqa-118" value="Livro não disponível" style="strokeWidth=2;html=1;shape=mxgraph.flowchart.display;whiteSpace=wrap;" vertex="1" parent="1">
          <mxGeometry x="668" y="670" width="100" height="60" as="geometry" />
        </mxCell>
        <mxCell id="DPEkDMbO7FzU6ocvymqa-125" style="edgeStyle=orthogonalEdgeStyle;rounded=0;orthogonalLoop=1;jettySize=auto;html=1;exitX=0.5;exitY=1;exitDx=0;exitDy=0;exitPerimeter=0;entryX=0;entryY=0.5;entryDx=0;entryDy=0;" edge="1" parent="1" source="DPEkDMbO7FzU6ocvymqa-122" target="DPEkDMbO7FzU6ocvymqa-98">
          <mxGeometry relative="1" as="geometry" />
        </mxCell>
        <mxCell id="DPEkDMbO7FzU6ocvymqa-122" value="Livro não foi emprestado" style="strokeWidth=2;html=1;shape=mxgraph.flowchart.display;whiteSpace=wrap;" vertex="1" parent="1">
          <mxGeometry x="1100" y="585" width="100" height="60" as="geometry" />
        </mxCell>
      </root>
    </mxGraphModel>
  </diagram>
</mxfile>
